<svg width="265" height="41" viewBox="0 0 265 41" fill="none" xmlns="http://www.w3.org/2000/svg">
<path d="M69.1386 32.9249L67.4126 28.2399H57.5847L55.8939 32.9249H50.2578L59.9096 8.26715H64.9468L74.9156 32.9249H69.1386ZM62.481 14.7838L59.2755 23.5902H65.7218L62.481 14.7838Z" fill="white"/>
<path d="M107.914 32.9249H102.489L100.059 16.8269L92.6964 32.8897H91.3931L84.031 16.8269L81.6004 32.9249H76.1405L80.0153 8.26715H85.3695L92.0271 23.3788L98.72 8.26715H104.074L107.914 32.9249Z" fill="white"/>
<path d="M123.123 33.4533C119.366 33.4533 116.231 32.2322 113.718 29.7899C111.229 27.3241 109.984 24.2595 109.984 20.596C109.984 16.9326 111.229 13.8797 113.718 11.4374C116.231 8.97166 119.366 7.73877 123.123 7.73877C125.589 7.73877 127.82 8.30238 129.816 9.42959C131.836 10.5333 133.409 12.0715 134.536 14.0441C135.663 15.9933 136.227 18.1772 136.227 20.596C136.227 24.283 134.982 27.3476 132.493 29.7899C130.004 32.2322 126.881 33.4533 123.123 33.4533ZM123.123 28.4161C124.579 28.4161 125.894 28.0873 127.068 27.4298C128.243 26.7487 129.158 25.8094 129.816 24.6117C130.497 23.4141 130.838 22.0755 130.838 20.596C130.838 18.3651 130.098 16.5099 128.618 15.0304C127.162 13.5275 125.331 12.776 123.123 12.776C120.939 12.776 119.096 13.5275 117.593 15.0304C116.113 16.5099 115.374 18.3651 115.374 20.596C115.374 22.827 116.113 24.6939 117.593 26.1969C119.096 27.6763 120.939 28.4161 123.123 28.4161Z" fill="white"/>
<path d="M153.637 32.9249L148.846 24.5061H145.429V32.9249H140.075V8.26715H150.044C151.664 8.26715 153.132 8.6194 154.447 9.32391C155.762 10.0049 156.784 10.9678 157.512 12.2124C158.263 13.457 158.639 14.866 158.639 16.4394C158.639 18.0128 158.24 19.4336 157.441 20.7017C156.643 21.9698 155.551 22.9327 154.165 23.5902L159.625 32.9249H153.637ZM145.429 13.1987V19.5745H149.692C150.772 19.5745 151.629 19.281 152.263 18.6939C152.921 18.1068 153.249 17.3436 153.249 16.4042C153.249 15.7702 153.108 15.2183 152.827 14.7486C152.545 14.2555 152.134 13.8797 151.594 13.6214C151.054 13.3396 150.42 13.1987 149.692 13.1987H145.429Z" fill="white"/>
<path d="M168.366 27.9581H178.194V32.9249H163.012V8.26715H177.806V13.1987H168.366V18.0598H176.89V22.8857H168.366V27.9581Z" fill="white"/>
<path d="M191.671 8.26715C195.287 8.26715 198.27 9.42959 200.618 11.7545C202.99 14.0559 204.176 16.9913 204.176 20.5608C204.176 24.1303 202.99 27.0892 200.618 29.4376C198.27 31.7625 195.287 32.9249 191.671 32.9249H182.336V8.26715H191.671ZM191.53 27.9581C193.643 27.9581 195.369 27.2654 196.708 25.8798C198.046 24.4943 198.716 22.7213 198.716 20.5608C198.716 18.4003 198.046 16.639 196.708 15.277C195.369 13.915 193.643 13.2339 191.53 13.2339H187.69V27.9581H191.53Z" fill="white"/>
<path d="M223.407 32.9249L221.68 28.2399H211.853L210.162 32.9249H204.526L214.177 8.26715H219.215L229.183 32.9249H223.407ZM216.749 14.7838L213.543 23.5902H219.99L216.749 14.7838Z" fill="white"/>
<path d="M246.599 8.26715V13.2339H239.73V32.9249H234.375V13.2339H227.542V8.26715H246.599Z" fill="white"/>
<path d="M255.158 27.9581H264.986V32.9249H249.804V8.26715H264.598V13.1987H255.158V18.0598H263.682V22.8857H255.158V27.9581Z" fill="white"/>
<path d="M23.8573 12.11C26.967 9.91618 31.5186 7.75212 34.6324 7.75212H34.6352C44.5058 7.75327 47.9956 14.822 45.0012 21.7376C47.1681 17.0421 47.787 12.0671 45.7087 7.57841C44.1829 4.28003 40.472 0.755371 34.633 0.755371C31.142 0.755371 27.2213 2.15941 23.8578 3.93031C20.4937 2.15941 16.5736 0.755371 13.0821 0.755371C7.24711 0.755371 3.53502 4.27775 2.0064 7.57669C0.929234 9.90304 0.584653 12.3608 0.794945 14.8415C0.968663 14.434 1.15667 14.0323 1.37439 13.6443C3.49559 9.86361 7.41283 7.60698 11.8535 7.60698C17.2091 7.60698 21.7132 10.5962 23.8578 12.11H23.8573Z" fill="white"/>
<path d="M14.3495 20.7543C16.7793 24.0292 20.3331 27.2156 23.8561 28.9659C30.902 25.4664 38.0724 16.2187 36.1244 12.0129C34.9895 9.56314 26.1138 14.141 23.8561 16.7576C23.8561 16.7576 15.9279 11.2815 11.6637 14.1838C8.22708 16.5227 10.2317 21.3909 11.8917 23.4384C9.41454 20.2748 12.5175 18.2394 14.3495 20.7549V20.7543Z" fill="white"/>
<path d="M34.6378 7.75155C37.7476 7.75155 38.9785 9.68417 39.3631 10.515C42.5798 17.4609 33.2835 28.2629 25.4473 32.1556L23.8627 32.9425L22.2781 32.1556C18.6711 30.3641 14.7613 27.1069 11.899 23.4371C10.2389 21.3896 8.2343 16.5215 11.671 14.1826C15.9351 11.2808 23.8633 16.7564 23.8633 16.7564C21.3375 14.1849 17.1054 12.1499 14.491 11.5002C5.61995 9.29559 0.416383 18.2747 5.05079 25.864C8.66117 31.2379 14.0305 35.8717 19.1649 38.4221L23.8621 40.7553L28.5594 38.4221C34.5407 35.4511 40.8437 29.6573 44.301 23.1514C48.4491 15.8209 45.185 7.75098 34.6373 7.75098L34.6378 7.75155Z" fill="white"/>
</svg>
