<svg width="181" height="23" viewBox="0 0 181 23" fill="none" xmlns="http://www.w3.org/2000/svg">
    <g filter="url(#filter0_d)">
        <path d="M46.0358 14.9735C46.0358 15.6042 45.9038 16.1689 45.6398 16.6675C45.3904 17.1662 45.0458 17.5915 44.6058 17.9435C44.1804 18.2809 43.6744 18.5449 43.0878 18.7355C42.5011 18.9115 41.8778 18.9995 41.2178 18.9995H33.7598V3.37953H41.8118C42.3544 3.37953 42.8458 3.49686 43.2858 3.73153C43.7258 3.9662 44.0998 4.2742 44.4078 4.65553C44.7158 5.0222 44.9504 5.44753 45.1118 5.93153C45.2878 6.40086 45.3758 6.87753 45.3758 7.36153C45.3758 8.1242 45.1778 8.84286 44.7818 9.51753C44.4004 10.1775 43.8504 10.6689 43.1318 10.9915C44.0264 11.2555 44.7304 11.7395 45.2438 12.4435C45.7718 13.1329 46.0358 13.9762 46.0358 14.9735ZM43.5058 14.5115C43.5058 14.1889 43.4471 13.8809 43.3298 13.5875C43.2271 13.2942 43.0804 13.0375 42.8898 12.8175C42.7138 12.5975 42.4938 12.4215 42.2298 12.2895C41.9658 12.1575 41.6798 12.0915 41.3718 12.0915H36.2238V16.8655H41.2178C41.5404 16.8655 41.8411 16.8069 42.1198 16.6895C42.3984 16.5575 42.6404 16.3889 42.8458 16.1835C43.0511 15.9635 43.2124 15.7142 43.3298 15.4355C43.4471 15.1422 43.5058 14.8342 43.5058 14.5115ZM36.2238 5.51353V10.1115H40.7558C41.0638 10.1115 41.3424 10.0529 41.5918 9.93553C41.8558 9.8182 42.0831 9.6642 42.2738 9.47353C42.4791 9.2682 42.6331 9.0262 42.7358 8.74753C42.8531 8.46886 42.9118 8.16086 42.9118 7.82353C42.9118 7.14886 42.7211 6.59886 42.3398 6.17353C41.9584 5.73353 41.4744 5.51353 40.8878 5.51353H36.2238Z"
              fill="white"/>
        <path d="M62.3195 16.8215V18.9995H51.6055V3.37953H62.1215V5.55753H54.0695V10.0015H61.0435V12.0475H54.0695V16.8215H62.3195Z"
              fill="white"/>
        <path d="M76.7791 7.05353C76.6324 6.8922 76.4197 6.72353 76.1411 6.54753C75.8624 6.35686 75.5324 6.18086 75.1511 6.01953C74.7844 5.8582 74.3737 5.7262 73.9191 5.62353C73.4791 5.52086 73.0244 5.46953 72.5551 5.46953C71.5137 5.46953 70.7437 5.6602 70.2451 6.04153C69.7611 6.42286 69.5191 6.95086 69.5191 7.62553C69.5191 8.00686 69.5924 8.3222 69.7391 8.57153C69.9004 8.8062 70.1424 9.01886 70.4651 9.20953C70.7877 9.38553 71.1911 9.54686 71.6751 9.69353C72.1591 9.82553 72.7237 9.9722 73.3691 10.1335C74.1611 10.3242 74.8724 10.5369 75.5031 10.7715C76.1484 11.0062 76.6911 11.2922 77.1311 11.6295C77.5711 11.9669 77.9084 12.3849 78.1431 12.8835C78.3924 13.3675 78.5171 13.9615 78.5171 14.6655C78.5171 15.4575 78.3631 16.1395 78.0551 16.7115C77.7617 17.2835 77.3511 17.7529 76.8231 18.1195C76.3097 18.4715 75.7084 18.7355 75.0191 18.9115C74.3297 19.0729 73.5891 19.1535 72.7971 19.1535C71.6091 19.1535 70.4577 18.9775 69.3431 18.6255C68.2431 18.2589 67.2457 17.7309 66.3511 17.0415L67.4731 14.9295C67.6637 15.1202 67.9351 15.3329 68.2871 15.5675C68.6537 15.8022 69.0717 16.0222 69.5411 16.2275C70.0251 16.4182 70.5457 16.5869 71.1031 16.7335C71.6604 16.8655 72.2397 16.9315 72.8411 16.9315C73.8091 16.9315 74.5571 16.7629 75.0851 16.4255C75.6131 16.0882 75.8771 15.5895 75.8771 14.9295C75.8771 14.5335 75.7744 14.2035 75.5691 13.9395C75.3784 13.6755 75.0997 13.4482 74.7331 13.2575C74.3664 13.0522 73.9191 12.8689 73.3911 12.7075C72.8631 12.5462 72.2617 12.3775 71.5871 12.2015C70.8097 11.9962 70.1277 11.7835 69.5411 11.5635C68.9691 11.3289 68.4924 11.0502 68.1111 10.7275C67.7297 10.4049 67.4364 10.0309 67.2311 9.60553C67.0404 9.16553 66.9451 8.63753 66.9451 8.02153C66.9451 7.25886 67.0917 6.5842 67.3851 5.99753C67.6784 5.3962 68.0744 4.89753 68.5731 4.50153C69.0864 4.09086 69.6877 3.78286 70.3771 3.57753C71.0664 3.3722 71.8144 3.26953 72.6211 3.26953C73.6771 3.26953 74.6524 3.4382 75.5471 3.77553C76.4417 4.11286 77.2264 4.53086 77.9011 5.02953L76.7791 7.05353Z"
              fill="white"/>
        <path d="M95.3429 5.55753H90.1509V18.9995H87.6649V5.55753H82.4509V3.37953H95.3429V5.55753Z" fill="white"/>
        <path d="M100.438 18.9995V3.37953H105.981C107.243 3.37953 108.343 3.58486 109.282 3.99553C110.235 4.4062 111.027 4.96353 111.658 5.66753C112.303 6.37153 112.787 7.2002 113.109 8.15353C113.432 9.0922 113.593 10.0969 113.593 11.1675C113.593 12.3555 113.41 13.4335 113.044 14.4015C112.692 15.3549 112.185 16.1762 111.525 16.8655C110.865 17.5402 110.066 18.0682 109.127 18.4495C108.189 18.8162 107.14 18.9995 105.981 18.9995H100.438ZM111.085 11.1675C111.085 10.3462 110.968 9.59086 110.733 8.90153C110.513 8.2122 110.184 7.62553 109.743 7.14153C109.303 6.64286 108.768 6.2542 108.137 5.97553C107.507 5.69687 106.788 5.55753 105.981 5.55753H102.901V16.8215H105.981C106.803 16.8215 107.529 16.6822 108.16 16.4035C108.805 16.1102 109.34 15.7142 109.765 15.2155C110.205 14.7022 110.535 14.1009 110.756 13.4115C110.976 12.7222 111.085 11.9742 111.085 11.1675Z"
              fill="white"/>
        <path d="M123.225 3.37953H125.381L131.541 18.9995H128.945L127.295 14.7535H121.267L119.639 18.9995H117.021L123.225 3.37953ZM126.811 12.9275L124.303 6.21753L121.707 12.9275H126.811Z"
              fill="white"/>
        <path d="M146.388 5.55753H141.196V18.9995H138.71V5.55753H133.496V3.37953H146.388V5.55753Z" fill="white"/>
        <path d="M162.196 16.8215V18.9995H151.482V3.37953H161.998V5.55753H153.946V10.0015H160.92V12.0475H153.946V16.8215H162.196Z"
              fill="white"/>
        <path d="M176.656 7.05353C176.509 6.8922 176.297 6.72353 176.018 6.54753C175.739 6.35686 175.409 6.18086 175.028 6.01953C174.661 5.8582 174.251 5.7262 173.796 5.62353C173.356 5.52086 172.901 5.46953 172.432 5.46953C171.391 5.46953 170.621 5.6602 170.122 6.04153C169.638 6.42286 169.396 6.95086 169.396 7.62553C169.396 8.00686 169.469 8.3222 169.616 8.57153C169.777 8.8062 170.019 9.01886 170.342 9.20953C170.665 9.38553 171.068 9.54686 171.552 9.69353C172.036 9.82553 172.601 9.9722 173.246 10.1335C174.038 10.3242 174.749 10.5369 175.38 10.7715C176.025 11.0062 176.568 11.2922 177.008 11.6295C177.448 11.9669 177.785 12.3849 178.02 12.8835C178.269 13.3675 178.394 13.9615 178.394 14.6655C178.394 15.4575 178.24 16.1395 177.932 16.7115C177.639 17.2835 177.228 17.7529 176.7 18.1195C176.187 18.4715 175.585 18.7355 174.896 18.9115C174.207 19.0729 173.466 19.1535 172.674 19.1535C171.486 19.1535 170.335 18.9775 169.22 18.6255C168.12 18.2589 167.123 17.7309 166.228 17.0415L167.35 14.9295C167.541 15.1202 167.812 15.3329 168.164 15.5675C168.531 15.8022 168.949 16.0222 169.418 16.2275C169.902 16.4182 170.423 16.5869 170.98 16.7335C171.537 16.8655 172.117 16.9315 172.718 16.9315C173.686 16.9315 174.434 16.7629 174.962 16.4255C175.49 16.0882 175.754 15.5895 175.754 14.9295C175.754 14.5335 175.651 14.2035 175.446 13.9395C175.255 13.6755 174.977 13.4482 174.61 13.2575C174.243 13.0522 173.796 12.8689 173.268 12.7075C172.74 12.5462 172.139 12.3775 171.464 12.2015C170.687 11.9962 170.005 11.7835 169.418 11.5635C168.846 11.3289 168.369 11.0502 167.988 10.7275C167.607 10.4049 167.313 10.0309 167.108 9.60553C166.917 9.16553 166.822 8.63753 166.822 8.02153C166.822 7.25886 166.969 6.5842 167.262 5.99753C167.555 5.3962 167.951 4.89753 168.45 4.50153C168.963 4.09086 169.565 3.78286 170.254 3.57753C170.943 3.3722 171.691 3.26953 172.498 3.26953C173.554 3.26953 174.529 3.4382 175.424 3.77553C176.319 4.11286 177.103 4.53086 177.778 5.02953L176.656 7.05353Z"
              fill="white"/>
        <path fill-rule="evenodd" clip-rule="evenodd"
              d="M5.81445 4.52236L9.18585 1L12.5572 4.52236L9.18585 8.04472L5.81445 4.52236ZM17.2578 8.50722L20.6292 4.98486L24.0006 8.50722L20.6292 12.0296L17.2578 8.50722ZM16.8148 8.96973L13.4434 12.4921L16.8148 16.0144L20.1862 12.4921L16.8148 8.96973ZM13.0003 12.9551L9.62891 16.4774L13.0003 19.9998L16.3717 16.4774L13.0003 12.9551ZM13.0003 4.98486L9.62891 8.50722L13.0003 12.0296L16.3717 8.50722L13.0003 4.98486ZM16.8148 1L13.4434 4.52236L16.8148 8.04472L20.1862 4.52236L16.8148 1ZM5.81445 12.4921L9.18585 8.96973L12.5572 12.4921L9.18585 16.0144L5.81445 12.4921ZM5.3714 4.98486L2 8.50722L5.3714 12.0296L8.7428 8.50722L5.3714 4.98486Z"
              fill="white"/>
    </g>
    <defs>
        <filter id="filter0_d" x="0" y="0" width="180.394" height="22.9998" filterUnits="userSpaceOnUse"
                color-interpolation-filters="sRGB">
            <feFlood flood-opacity="0" result="BackgroundImageFix"/>
            <feColorMatrix in="SourceAlpha" type="matrix" values="0 0 0 0 0 0 0 0 0 0 0 0 0 0 0 0 0 0 127 0"/>
            <feOffset dy="1"/>
            <feGaussianBlur stdDeviation="1"/>
            <feColorMatrix type="matrix" values="0 0 0 0 0 0 0 0 0 0 0 0 0 0 0 0 0 0 0.35 0"/>
            <feBlend mode="normal" in2="BackgroundImageFix" result="effect1_dropShadow"/>
            <feBlend mode="normal" in="SourceGraphic" in2="effect1_dropShadow" result="shape"/>
        </filter>
    </defs>
</svg>
