<?xml version="1.0" encoding="UTF-8"?>
<svg width="1832px" height="386px" viewBox="0 0 1832 386" version="1.1" xmlns="http://www.w3.org/2000/svg" xmlns:xlink="http://www.w3.org/1999/xlink">
    <!-- Generator: Sketch 62 (91390) - https://sketch.com -->
    <title>Group 4</title>
    <desc>Created with Sketch.</desc>
    <defs>
        <polygon id="path-1" points="0.06 0.119 1831.83 0.119 1831.83 386 0.06 386"></polygon>
    </defs>
    <g id="Page-1" stroke="none" stroke-width="1" fill="none" fill-rule="evenodd">
        <g id="05_HORNET_LOGO_HORIZONTAL_SPECIAL">
            <g id="Group-4">
                <mask id="mask-2" fill="white">
                    <use xlink:href="#path-1"></use>
                </mask>
                <g id="Clip-2"></g>
                <path d="M683.401,103.416 L639.38,103.416 L639.38,182.26 L562.732,182.26 L562.732,103.416 L518.71,103.416 L518.71,292.054 L562.732,292.054 L562.732,212.298 L639.38,212.298 L639.38,292.054 L683.401,292.054 L683.401,103.416 Z M945.384,159.743 C940.698,148.005 934.065,137.819 925.507,129.188 C916.974,120.556 906.69,113.749 894.63,108.792 C882.595,103.835 869.229,101.344 854.555,101.344 C839.881,101.344 826.514,103.811 814.43,108.718 C802.346,113.651 792.012,120.433 783.43,129.04 C774.823,137.696 768.189,147.881 763.479,159.595 C758.768,171.359 756.425,184.035 756.425,197.673 C756.425,211.311 758.768,224.012 763.479,235.727 C768.189,247.49 774.823,257.675 783.43,266.356 C792.012,275.038 802.346,281.819 814.43,286.752 C826.514,291.66 839.881,294.126 854.555,294.126 C869.229,294.126 882.595,291.66 894.63,286.752 C906.69,281.819 916.974,275.038 925.507,266.356 C934.065,257.675 940.698,247.49 945.384,235.727 C950.094,224.012 952.438,211.311 952.438,197.673 C952.438,184.134 950.094,171.483 945.384,159.743 L945.384,159.743 Z M904.026,222.976 C901.609,230.449 898.132,236.787 893.594,241.941 C889.081,247.12 883.532,251.09 876.972,253.803 C870.412,256.516 862.94,257.873 854.555,257.873 C846.096,257.873 838.573,256.516 831.964,253.803 C825.38,251.09 819.806,247.12 815.269,241.941 C810.731,236.787 807.253,230.449 804.836,222.976 C802.419,215.528 801.211,207.094 801.211,197.673 C801.211,188.351 802.419,179.966 804.836,172.494 C807.253,165.021 810.731,158.708 815.269,153.528 C819.806,148.35 825.38,144.379 831.964,141.617 C838.573,138.855 846.096,137.474 854.555,137.474 C862.94,137.474 870.412,138.855 876.972,141.617 C883.532,144.379 889.081,148.35 893.594,153.528 C898.132,158.708 901.609,165.021 904.026,172.494 C906.442,179.966 907.651,188.351 907.651,197.673 C907.651,207.094 906.442,215.528 904.026,222.976 L904.026,222.976 Z M1080.11,222.261 C1083.46,222.261 1086.08,222.779 1087.93,223.815 C1089.8,224.851 1091.41,226.602 1092.79,228.994 L1124.13,283.767 C1127.31,289.292 1132.59,292.054 1139.92,292.054 L1179.55,292.054 L1139.4,226.404 C1137.5,223.297 1135.28,220.683 1132.74,218.512 C1130.2,216.367 1127.46,214.542 1124.53,213.087 C1130.64,210.744 1136.07,207.76 1140.76,204.135 C1145.46,200.534 1149.44,196.391 1152.67,191.779 C1155.92,187.168 1158.36,182.136 1159.99,176.686 C1161.64,171.26 1162.46,165.49 1162.46,159.349 C1162.46,151.309 1161.08,143.911 1158.31,137.079 C1155.55,130.273 1151.11,124.354 1145.05,119.347 C1138.95,114.341 1131.09,110.42 1121.47,107.633 C1111.85,104.821 1100.21,103.416 1086.57,103.416 L1025.21,103.416 L1025.21,292.054 L1068.96,292.054 L1068.96,222.261 L1080.11,222.261 Z M1068.96,136.167 L1086.57,136.167 C1097.89,136.167 1106.23,138.51 1111.63,143.171 C1117.03,147.832 1119.72,154.293 1119.72,162.58 C1119.72,166.723 1119.13,170.595 1117.92,174.171 C1116.71,177.747 1114.76,180.879 1112.1,183.567 C1109.41,186.23 1105.98,188.326 1101.79,189.831 C1097.6,191.36 1092.54,192.1 1086.57,192.1 L1068.96,192.1 L1068.96,136.167 Z M1272.25,103.416 L1249.19,103.416 L1249.19,292.054 L1287.79,292.054 L1287.79,190.941 C1287.79,188.178 1287.69,185.219 1287.52,182.063 C1287.34,178.93 1287.15,175.7 1286.88,172.42 L1375.83,284.803 C1377.98,287.566 1380.22,289.464 1382.56,290.501 C1384.88,291.536 1387.74,292.054 1391.1,292.054 L1413.88,292.054 L1413.88,103.416 L1375.31,103.416 L1375.31,203.247 C1375.31,206.255 1375.39,209.486 1375.56,212.89 C1375.73,216.293 1376,219.819 1376.35,223.445 L1286.75,110.149 C1285.54,108.693 1284.46,107.51 1283.52,106.647 C1282.56,105.783 1281.57,105.118 1280.54,104.649 C1279.5,104.18 1278.34,103.86 1277.04,103.663 C1275.75,103.515 1274.15,103.416 1272.25,103.416 L1272.25,103.416 Z M1496.75,103.416 L1496.75,292.054 L1618.21,292.054 L1618.21,258.39 L1540.77,258.39 L1540.77,213.457 L1600.08,213.457 L1600.08,181.101 L1540.77,181.101 L1540.77,137.079 L1618.21,137.079 L1618.21,103.416 L1496.75,103.416 Z M1681.91,103.416 L1681.91,138.115 L1734.98,138.115 L1734.98,292.054 L1778.76,292.054 L1778.76,138.115 L1831.83,138.115 L1831.83,103.416 L1681.91,103.416 L1681.91,103.416 Z" id="Fill-1" fill="#232422" mask="url(#mask-2)"></path>
                <path d="M196.661,386 C305.277,386 393.322,299.621 393.322,193.063 C393.322,86.505 305.277,0.119 196.661,0.119 C88.045,0.119 0,86.505 0,193.063 C0,299.621 88.045,386 196.661,386" id="Fill-3" fill="#DF5437" mask="url(#mask-2)"></path>
            </g>
            <path d="M210.618,236.652 C229.527,213.542 249.373,188.45 268.416,165.167 L201.738,151.913 C196.389,150.819 192.511,151.952 188.963,156.089 C183.363,162.634 177.472,168.943 171.565,175.227 C168.882,178.09 168.135,181.158 169.236,184.871 C172.587,196.19 175.859,208.594 179.226,219.905 C179.485,220.771 180.075,221.887 180.807,222.21 L210.618,236.652" id="Fill-5" fill="#FFFFFE"></path>
            <path d="M84.189,121.525 L151.579,99.856 C153.53,99.274 154.867,99.502 156.48,100.784 L219.646,150.635 L84.189,121.525" id="Fill-6" fill="#FFFFFE"></path>
            <path d="M229.087,152.774 C221.692,146.961 215.03,140.652 208.376,135.406 C191.433,122.058 174.482,108.733 157.594,95.314 C156.037,94.079 154.762,93.938 152.961,94.543 C146.519,96.73 140.006,98.728 133.548,100.875 C132.085,101.363 131.063,101.512 129.969,100.002 L98.758,56.59 C107.803,60.507 116.306,64.189 124.809,67.878 C151.451,79.425 178.1,90.94 204.694,102.582 C206.158,103.227 207.628,104.698 208.305,106.153 L229.087,152.774" id="Fill-7" fill="#FFFFFE"></path>
            <path d="M205.284,239.81 C207.471,240.871 208.344,241.855 207.927,244.513 L205.308,268.111 L120.546,258.752 L143.79,233.603 C153.788,222.867 162.286,219.681 173.42,224.424 L205.284,239.81" id="Fill-8" fill="#FFFFFE"></path>
            <path d="M204.916,273.334 C191.182,289.214 177.637,304.876 163.824,320.851 L120.858,264.295 L204.916,273.334" id="Fill-9" fill="#FFFFFE"></path>
            <path d="M272.732,167.27 C278.805,174.215 284.877,182.082 290.73,189.067 C291.69,190.223 292.365,192.331 292.043,193.739 C289.676,204.303 285.695,214.198 278.624,222.583 C273.692,228.443 267.572,232.376 259.345,233.399 C258.338,229.67 257.276,225.879 256.293,222.072 C254.256,214.237 252.203,206.403 250.299,198.529 C250.032,197.436 250.118,195.816 250.764,195.005 L272.732,167.27" id="Fill-10" fill="#FFFFFE"></path>
            <path d="M192.814,295.912 C193.962,294.724 194.851,294.449 196.408,295.235 L251.587,324.922 C242.29,326.172 233.449,327.36 224.615,328.54 C218.952,329.295 213.312,330.334 207.617,330.703 C202.961,330.994 198.139,331.065 193.585,330.208 C185.145,328.627 176.854,326.298 167.62,324.072 L192.814,295.912" id="Fill-11" fill="#FFFFFE"></path>
            <path d="M300.255,158.071 C301.072,161.233 301.93,164.387 302.67,167.573 C302.803,168.147 302.591,168.957 302.253,169.461 C299.318,173.85 296.306,178.192 292.672,182.297 L300.255,158.071" id="Fill-12" fill="#FFFFFE"></path>
        </g>
    </g>
</svg>
