<svg width="89" height="50" viewBox="0 0 89 50" fill="none" xmlns="http://www.w3.org/2000/svg">
<path d="M28.9526 23.6628C29.1657 23.6748 29.3907 23.6748 29.6157 23.6748H29.8171C30.2789 23.6748 30.7289 23.6628 31.1789 23.6388C31.3803 23.6268 31.5816 23.6148 31.7829 23.6028C31.6408 22.5594 31.4868 21.516 31.3329 20.5206L30.8592 20.4726C30.4921 20.4366 30.0894 20.4006 29.6513 20.3527L29.1894 20.3047C29.0828 21.4081 29.0118 22.5354 28.9526 23.6628Z" fill="white"/>
<path d="M71.5734 19.5612L71.0405 19.6811C71.5971 22.1158 71.9998 27.8965 72.0234 30.2352C73.0064 30.3791 75.3156 30.691 75.5288 30.7149C75.9788 30.4751 76.4051 26.3014 75.4696 21.9478C75.0196 19.837 74.4511 19.0575 74.084 19.0215C73.3735 19.1654 72.3787 19.3813 71.5734 19.5612Z" fill="white"/>
<path d="M81.5804 4.16167C81.5448 4.06572 81.4856 3.99376 81.3909 3.95778C81.308 3.9218 81.2014 3.9338 81.1185 3.96978C79.2119 5.0012 74.2499 6.89614 72.213 7.65171L76.6658 0.503718C76.7368 0.395778 76.725 0.251859 76.6539 0.143919C76.5947 0.0599664 76.5 0 76.3934 0H76.3816C76.3579 0 76.3342 0 76.3223 0.0119933L58.8193 3.94579C58.7246 3.96978 58.6417 4.04174 58.5943 4.12569L55.7403 10.5541C51.6429 11.3217 47.2375 11.7054 42.6308 11.7054C22.7356 11.7054 4.78263 4.4615 4.60499 4.38954C4.48657 4.34157 4.34446 4.36555 4.26156 4.4615C4.16682 4.55745 4.14314 4.68937 4.19051 4.8213L10.0288 19.4171L6.52345 17.786C6.44056 17.7501 6.33398 17.7501 6.25108 17.786C6.16818 17.834 6.09713 17.906 6.07344 18.0019L0.0101539 43.1758C-0.0253732 43.3197 0.0338386 43.4637 0.164105 43.5356L5.59975 46.7858C5.69449 46.8458 5.81291 46.8458 5.91949 46.7858C18.1053 40.0816 33.1569 38.6663 43.6493 38.6663C50.2573 38.6663 55.0653 39.23 55.9772 39.35L58.3338 43.7275C58.3812 43.8115 58.4641 43.8834 58.5706 43.8954C69.0393 45.5025 83.0962 49.94 83.2383 49.988C83.2738 50 83.2975 50 83.333 50C83.4396 50 83.5343 49.952 83.6054 49.8561C83.6883 49.7361 83.6764 49.5802 83.5817 49.4603L80.2777 45.4665C82.8001 46.426 86.7199 48.3089 86.7673 48.3329C86.862 48.3809 86.9805 48.3689 87.0752 48.3089C87.1699 48.249 87.2292 48.141 87.2292 48.0331C87.2292 21.396 81.6396 4.32958 81.5804 4.16167ZM59.8496 11.8853L62.0878 7.04006C62.1352 6.94411 62.2181 6.87215 62.3247 6.86016C63.3313 6.66827 64.3379 6.46438 65.3089 6.2485C66.0076 6.09259 66.6945 5.93668 67.3695 5.76877C67.9972 5.61286 68.6366 5.45694 69.2761 5.27704C69.4064 5.24107 69.5367 5.28904 69.6196 5.39698C69.7025 5.50492 69.7025 5.64884 69.6314 5.76877L66.3629 11.0698C66.3155 11.1418 66.2445 11.2017 66.1616 11.2137C64.1958 11.6455 62.1826 12.0293 60.1812 12.3411C60.1694 12.3411 60.1457 12.3411 60.1338 12.3411C60.0273 12.3411 59.9325 12.2931 59.8733 12.2092C59.8022 12.1252 59.7904 11.9933 59.8496 11.8853ZM21.1014 37.0952C21.0777 37.2272 20.983 37.3231 20.8527 37.3591C16.5184 38.3065 11.592 39.7218 7.31689 41.2569C7.28136 41.2689 7.24584 41.2809 7.21031 41.2809C7.16294 41.2809 7.12741 41.2689 7.08004 41.2569L5.93134 40.7652C5.80107 40.7052 5.71817 40.5853 5.73002 40.4414C6.29845 32.8736 9.5551 24.1425 9.59063 24.0585C9.64984 23.8906 9.83932 23.8067 9.99327 23.8666L15.4052 25.7736C15.5118 25.8095 15.5947 25.9055 15.6184 26.0134C15.6421 26.1214 15.6065 26.2413 15.5355 26.3133C13.9841 27.8604 13.6052 30.427 13.5341 31.0986C13.8539 31.1466 14.1855 31.1705 14.517 31.1705C14.825 31.1705 15.1447 31.1466 15.4526 31.1106C16.2579 31.0146 16.8382 30.8107 17.0513 30.7268C17.5013 24.0106 15.8789 19.585 15.6302 18.9494L13.4157 18.3977C13.3091 18.3737 13.2262 18.3018 13.1907 18.1938L10.4906 10.9619C10.4433 10.8419 10.4788 10.71 10.5617 10.626C10.6446 10.5301 10.7749 10.5061 10.8933 10.5421C14.2328 11.6215 17.6671 12.557 21.1132 13.2886C21.2435 13.3125 21.3383 13.4205 21.3619 13.5524C21.3856 13.6963 21.4093 13.8283 21.433 13.9722C21.729 15.6992 21.9541 17.5102 22.0843 19.3452C22.6646 27.0688 21.7172 33.7851 21.1014 37.0952ZM37.9057 34.9604C37.8465 35.0324 37.7636 35.0804 37.6689 35.0923C36.2241 35.1763 34.7438 35.2842 33.2872 35.4282C32.9438 35.4641 32.6003 35.5001 32.2569 35.5361C32.174 35.5481 32.0793 35.5241 32.0201 35.4641C31.949 35.4042 31.9135 35.3202 31.9016 35.2363C31.8069 33.7491 31.7003 32.2619 31.5937 30.8107C31.5819 30.6548 31.6885 30.5109 31.8424 30.4629L32.6122 30.283C32.5056 29.3716 32.4109 28.4481 32.2924 27.5486C32.0201 27.5486 31.7595 27.5486 31.4872 27.5486C30.8714 27.5606 30.2437 27.5726 29.6161 27.6205C29.3437 27.6325 29.0595 27.6565 28.7753 27.6805C28.7516 28.484 28.7279 29.3116 28.7279 30.1271L29.5805 30.379C29.7108 30.415 29.8055 30.5469 29.8055 30.6908C29.8292 32.2859 29.8648 33.917 29.924 35.5241C29.924 35.692 29.8055 35.8359 29.6397 35.8599C29.2963 35.9079 28.9647 35.9559 28.6213 36.0038C26.8923 36.2557 25.116 36.5435 23.3751 36.8913C23.3515 36.8913 23.3396 36.8913 23.3159 36.8913C23.233 36.8913 23.1501 36.8554 23.0791 36.7954C23.008 36.7114 22.9725 36.6035 22.9962 36.4956C23.3278 34.9844 23.9673 31.8662 24.4646 28.0283C24.666 26.4692 24.8317 24.922 24.9502 23.4349C25.0449 22.2236 25.116 21.0362 25.1515 19.8969C24.8081 19.8609 24.4646 19.8249 24.1094 19.7769C23.9554 19.7529 23.8251 19.621 23.8251 19.4651C23.7304 16.9465 23.5765 15.0756 23.4936 14.1761C23.4817 14.0801 23.5172 13.9722 23.6001 13.9002C23.6712 13.8283 23.7778 13.8043 23.8725 13.8163L24.133 13.8642C25.9331 14.2 27.7805 14.4999 29.5924 14.7397L29.8411 14.7757C29.9713 14.7877 30.0898 14.8117 30.22 14.8237L30.5516 14.8597C31.6529 14.9916 32.7424 15.1115 33.7846 15.2075C33.9267 15.2195 34.0451 15.3274 34.0688 15.4713C34.2464 16.5148 34.7438 19.3572 35.478 23.147C35.7741 24.6462 36.0702 26.1454 36.3781 27.5965C36.8991 30.0792 37.432 32.4658 37.9531 34.6966C37.9886 34.7805 37.9649 34.8885 37.9057 34.9604ZM49.6533 22.7033C49.6297 22.8832 49.4757 23.0151 49.2981 22.9911C48.8007 22.9312 47.4625 22.7992 45.6625 22.7033C45.5085 22.6913 45.3782 22.5714 45.3546 22.4154C45.3309 22.2116 45.2954 21.9117 45.2598 21.5999C45.2243 21.2281 45.1769 20.8323 45.1414 20.5685C44.1703 20.4246 43.1756 20.3526 42.2045 20.3526C42.1453 20.3526 42.0742 20.3526 42.015 20.3526C42.0505 20.8563 42.0861 21.372 42.1334 21.8997C42.3348 23.9506 42.69 25.9655 43.1756 27.8724C43.3058 28.3641 43.4361 28.8678 43.5901 29.3476C44.3716 29.2636 45.1532 29.1557 45.8993 29.0237C45.8993 28.8079 45.8993 28.532 45.8993 28.2322C45.8993 27.8004 45.9112 27.3567 45.8875 27.0928C45.8756 26.9249 45.9941 26.781 46.148 26.757C47.4862 26.5052 48.5283 26.1813 49.1796 25.9655C49.2744 25.9295 49.3928 25.9535 49.4757 26.0134C49.5586 26.0734 49.606 26.1813 49.606 26.2893V26.4332C49.4994 30.4749 49.3218 33.4373 49.1204 34.7565C49.0967 34.9125 48.9546 35.0324 48.8007 35.0324H48.7888C47.9007 34.9844 46.977 34.9604 46.0651 34.9364C45.2125 34.9125 44.4427 34.9124 43.6966 34.9124C42.6782 34.9124 41.6124 34.9244 40.511 34.9604H40.4992C40.3689 34.9604 40.2387 34.8645 40.2031 34.7326C39.5044 32.6457 38.8649 30.379 38.3202 27.9803L38.3084 27.9204C37.9176 26.1933 37.5504 24.3943 37.2425 22.5714C37.1478 22.0197 37.0649 21.468 36.982 20.9163C36.6149 18.4817 36.4254 16.6347 36.3544 15.7472C36.3425 15.6512 36.3781 15.5553 36.4491 15.4953C36.5202 15.4234 36.6031 15.3874 36.6978 15.3994C39.0426 15.5553 41.3282 15.6272 43.4835 15.6272C43.744 15.6272 44.0164 15.6272 44.2769 15.6272H44.4901C46.0296 15.6153 47.5691 15.5673 49.0494 15.4953C49.227 15.4833 49.3691 15.6153 49.381 15.7952C49.4875 17.3423 49.7836 21.5639 49.6533 22.7033ZM82.1014 40.5013C82.1014 40.6332 82.0185 40.7532 81.8883 40.8012L80.4672 41.3289C80.4316 41.3408 80.3961 41.3528 80.3606 41.3528C80.3251 41.3528 80.2895 41.3408 80.254 41.3289C77.8026 40.4294 74.7591 39.314 72.0828 38.5704C71.3012 38.3545 70.4959 38.1386 69.6906 37.9348C69.4775 37.8748 69.2525 37.8268 69.0274 37.7668L73.267 42.5402C73.3736 42.6481 73.3854 42.804 73.3144 42.936C73.2552 43.0319 73.1486 43.0919 73.042 43.0919C73.0065 43.0919 72.9828 43.0919 72.9473 43.0799C72.8407 43.0439 72.7341 43.0199 72.6275 42.9839C71.2893 42.6001 69.9038 42.2403 68.5064 41.8925C66.6708 41.4488 64.8116 41.053 62.976 40.7172C62.8931 40.7052 62.822 40.6572 62.7747 40.5853L56.1666 31.4224V35.2603C56.1666 35.3562 56.1311 35.4402 56.0601 35.5001C55.989 35.5601 55.9061 35.5961 55.8114 35.5841C54.2719 35.4042 52.6968 35.2722 51.1336 35.1643C51.0507 35.1523 50.9678 35.1163 50.9086 35.0444C50.8494 34.9724 50.8257 34.8885 50.8376 34.8045C51.5481 27.3807 51.3113 20.3286 50.9915 15.7232C50.9797 15.6392 51.0152 15.5553 51.0744 15.4833C51.1336 15.4234 51.2047 15.3754 51.2994 15.3754C52.8153 15.2675 54.3429 15.1355 55.8232 14.9676C55.918 14.9556 56.0008 14.9916 56.0719 15.0516C56.143 15.1115 56.1785 15.2075 56.1785 15.2914V19.8009L58.5114 14.7757C58.5588 14.6798 58.6535 14.6078 58.7601 14.5958C60.5365 14.344 62.3365 14.0441 64.1247 13.6963C64.255 13.6723 64.3734 13.7203 64.4563 13.8283C64.5273 13.9362 64.5273 14.0801 64.4681 14.1881L57.5167 25.4977L65.1905 33.6532C65.001 32.3099 64.7997 30.6668 64.705 29.4315C64.6931 29.3356 64.7405 29.2276 64.8116 29.1677C64.8826 29.0957 64.9892 29.0717 65.0839 29.0837C66.1261 29.2756 66.5761 29.3596 67.6537 29.5275C67.6419 26.5052 67.559 23.9266 67.18 20.5445L66.5524 20.6884C66.0432 20.8083 65.6761 20.8923 65.0247 21.0362C65.001 21.0482 64.9774 21.0482 64.9537 21.0482C64.8826 21.0482 64.7997 21.0242 64.7405 20.9643C64.6576 20.8923 64.6221 20.7964 64.6339 20.6884C64.9181 17.0185 65.5576 14.0321 65.6761 13.4805C65.6997 13.3605 65.8063 13.2646 65.9247 13.2286C66.1616 13.1806 66.3984 13.1207 66.6353 13.0727L66.8366 13.0247C67.6774 12.8328 68.4945 12.6409 69.2998 12.437C72.2249 11.7054 75.1618 10.8419 78.0276 9.84649C78.1105 9.8225 78.2053 9.8225 78.2763 9.87047C78.3592 9.90645 78.4184 9.97841 78.4421 10.0744C79.0935 12.437 79.6737 14.8597 80.1474 17.2703C81.0001 21.5399 81.5804 25.9175 81.8764 30.283C82.0304 32.6337 82.1133 35.0084 82.1133 37.3351C82.1133 37.6109 82.1133 37.9348 82.1133 38.2706C82.1133 39.0381 82.1251 39.8657 82.1014 40.5013Z" fill="white"/>
</svg>
