<svg width="265" height="41" viewBox="0 0 265 41" fill="none" xmlns="http://www.w3.org/2000/svg">
<path d="M69.1406 32.3527L67.4145 27.6677H57.5866L55.8958 32.3527H50.2598L59.9115 7.69488H64.9488L74.9175 32.3527H69.1406ZM62.483 14.2116L59.2775 23.0179H65.7237L62.483 14.2116Z" fill="#282828"/>
<path d="M107.916 32.3527H102.491L100.06 16.2547L92.6984 32.3174H91.395L84.0329 16.2547L81.6024 32.3527H76.1424L80.0172 7.69488H85.3715L92.0291 22.8066L98.7219 7.69488H104.076L107.916 32.3527Z" fill="#282828"/>
<path d="M123.125 32.881C119.368 32.881 116.233 31.6599 113.72 29.2176C111.231 26.7518 109.986 23.6872 109.986 20.0238C109.986 16.3603 111.231 13.3075 113.72 10.8652C116.233 8.39939 119.368 7.1665 123.125 7.1665C125.591 7.1665 127.822 7.73011 129.818 8.85732C131.838 9.96105 133.411 11.4992 134.538 13.4718C135.665 15.421 136.229 17.605 136.229 20.0238C136.229 23.7107 134.984 26.7753 132.495 29.2176C130.006 31.6599 126.882 32.881 123.125 32.881ZM123.125 27.8438C124.581 27.8438 125.896 27.515 127.07 26.8575C128.245 26.1765 129.16 25.2371 129.818 24.0395C130.499 22.8418 130.839 21.5032 130.839 20.0238C130.839 17.7928 130.1 15.9376 128.62 14.4582C127.164 12.9552 125.333 12.2037 123.125 12.2037C120.941 12.2037 119.098 12.9552 117.595 14.4582C116.115 15.9376 115.376 17.7928 115.376 20.0238C115.376 22.2547 116.115 24.1217 117.595 25.6246C119.098 27.1041 120.941 27.8438 123.125 27.8438Z" fill="#282828"/>
<path d="M153.639 32.3527L148.848 23.9338H145.431V32.3527H140.077V7.69488H150.046C151.666 7.69488 153.134 8.04714 154.449 8.75165C155.764 9.43267 156.786 10.3955 157.514 11.6401C158.265 12.8848 158.641 14.2938 158.641 15.8672C158.641 17.4406 158.242 18.8613 157.443 20.1294C156.645 21.3976 155.553 22.3604 154.167 23.0179L159.627 32.3527H153.639ZM145.431 12.6264V19.0022H149.694C150.774 19.0022 151.631 18.7087 152.265 18.1216C152.923 17.5345 153.251 16.7713 153.251 15.8319C153.251 15.1979 153.11 14.646 152.829 14.1764C152.547 13.6832 152.136 13.3075 151.596 13.0491C151.056 12.7673 150.422 12.6264 149.694 12.6264H145.431Z" fill="#282828"/>
<path d="M168.368 27.3859H178.196V32.3527H163.013V7.69488H177.808V12.6264H168.368V17.4875H176.892V22.3134H168.368V27.3859Z" fill="#282828"/>
<path d="M191.673 7.69488C195.289 7.69488 198.271 8.85732 200.62 11.1822C202.992 13.4836 204.178 16.419 204.178 19.9885C204.178 23.558 202.992 26.517 200.62 28.8653C198.271 31.1902 195.289 32.3527 191.673 32.3527H182.338V7.69488H191.673ZM191.532 27.3859C193.645 27.3859 195.371 26.6931 196.71 25.3076C198.048 23.922 198.718 22.149 198.718 19.9885C198.718 17.8281 198.048 16.0668 196.71 14.7047C195.371 13.3427 193.645 12.6617 191.532 12.6617H187.692V27.3859H191.532Z" fill="#282828"/>
<path d="M223.408 32.3527L221.682 27.6677H211.855L210.164 32.3527H204.528L214.179 7.69488H219.217L229.185 32.3527H223.408ZM216.751 14.2116L213.545 23.0179H219.992L216.751 14.2116Z" fill="#282828"/>
<path d="M246.601 7.69488V12.6617H239.732V32.3527H234.377V12.6617H227.544V7.69488H246.601Z" fill="#282828"/>
<path d="M255.16 27.3859H264.988V32.3527H249.806V7.69488H264.6V12.6264H255.16V17.4875H263.684V22.3134H255.16V27.3859Z" fill="#282828"/>
<path d="M23.8592 11.5377C26.969 9.34392 31.5205 7.17986 34.6343 7.17986H34.6372C44.5077 7.181 47.9975 14.2498 45.0032 21.1654C47.1701 16.4698 47.789 11.4948 45.7106 7.00614C44.1849 3.70777 40.4739 0.183105 34.6349 0.183105C31.144 0.183105 27.2233 1.58714 23.8598 3.35805C20.4957 1.58714 16.5756 0.183105 13.0841 0.183105C7.24906 0.183105 3.53697 3.70548 2.00836 7.00443C0.931187 9.33077 0.586607 11.7885 0.796898 14.2692C0.970616 13.8617 1.15862 13.46 1.37634 13.072C3.49754 9.29134 7.41478 7.03471 11.8555 7.03471C17.211 7.03471 21.7152 10.0239 23.8598 11.5377H23.8592Z" fill="url(#paint0_linear_8155_22044)"/>
<path d="M14.3515 20.182C16.7813 23.457 20.3351 26.6433 23.858 28.3937C30.9039 24.8941 38.0744 15.6465 36.1263 11.4407C34.9914 8.99087 26.1158 13.5687 23.858 16.1853C23.858 16.1853 15.9298 10.7092 11.6657 13.6116C8.22903 15.9505 10.2337 20.8186 11.8937 22.8661C9.41649 19.7026 12.5194 17.6671 14.3515 20.1826V20.182Z" fill="url(#paint1_linear_8155_22044)"/>
<path d="M34.6398 7.17928C37.7496 7.17928 38.9805 9.1119 39.3651 9.94278C42.5817 16.8887 33.2855 27.6907 25.4493 31.5833L23.8647 32.3702L22.28 31.5833C18.6731 29.7919 14.7633 26.5346 11.9009 22.8648C10.2409 20.8173 8.23625 15.9492 11.6729 13.6103C15.937 10.7085 23.8652 16.1841 23.8652 16.1841C21.3395 13.6126 17.1073 11.5777 14.493 10.928C5.6219 8.72332 0.418336 17.7024 5.05274 25.2917C8.66312 30.6656 14.0324 35.2994 19.1668 37.8498L23.8641 40.183L28.5614 37.8498C34.5426 34.8789 40.8457 29.085 44.3029 22.5791C48.451 15.2486 45.1869 7.17871 34.6392 7.17871L34.6398 7.17928Z" fill="url(#paint2_linear_8155_22044)"/>
<defs>
<linearGradient id="paint0_linear_8155_22044" x1="1.81292" y1="10.6742" x2="47.013" y2="10.6742" gradientUnits="userSpaceOnUse">
<stop stop-color="#083F82"/>
<stop offset="0.5" stop-color="#3E87DE"/>
<stop offset="1" stop-color="#75FFEE"/>
</linearGradient>
<linearGradient id="paint1_linear_8155_22044" x1="10.4029" y1="19.5679" x2="36.4656" y2="19.5679" gradientUnits="userSpaceOnUse">
<stop stop-color="#083F82"/>
<stop offset="0.5" stop-color="#3E87DE"/>
<stop offset="1" stop-color="#75FFEE"/>
</linearGradient>
<linearGradient id="paint2_linear_8155_22044" x1="46.2332" y1="19.3111" x2="-1.58705" y2="19.5696" gradientUnits="userSpaceOnUse">
<stop stop-color="#083F82"/>
<stop offset="0.5" stop-color="#3E87DE"/>
<stop offset="1" stop-color="#75FFEE"/>
</linearGradient>
</defs>
</svg>
