<?xml version="1.0" encoding="utf-8"?>
<!-- Generator: Adobe Illustrator 22.0.1, SVG Export Plug-In . SVG Version: 6.00 Build 0)  -->
<svg version="1.1" id="Layer_1" xmlns="http://www.w3.org/2000/svg" xmlns:xlink="http://www.w3.org/1999/xlink" x="0px" y="0px"
	 viewBox="0 0 89.8 36.8" style="enable-background:new 0 0 89.8 36.8;" xml:space="preserve">
<style type="text/css">
	.st0{clip-path:url(#SVGID_2_);}
	.st1{fill:#2A2A2A;}
	.st2{fill-rule:evenodd;clip-rule:evenodd;fill:#2A2A2A;}
</style>
<g>
	<defs>
		<path id="SVGID_1_" d="M93.9-8.7"/>
	</defs>
	<use xlink:href="#SVGID_1_"  style="overflow:visible;fill:#2A2A2A;"/>
	<clipPath id="SVGID_2_">
		<use xlink:href="#SVGID_1_"  style="overflow:visible;"/>
	</clipPath>
	<g class="st0">
		<rect x="-3.2" y="-2.5" class="st1" width="96.4" height="42.3"/>
	</g>
</g>
<g>
	<path class="st2" d="M28.6,3.6c0,1.4-1.1,2.6-2.5,2.6S23.6,5,23.6,3.6c0-1.4,1.1-2.6,2.5-2.6S28.6,2.2,28.6,3.6z M24.6,8.2
		c-1.3,2.9-3.5,2.9-5.9,2.9h-0.4V1h-4.1v10H10c-2.4,0-4.3,0.6-5.6,1.7V1H0.2v25.5h4.1v-6.4c0-3.6,1.6-4.7,4.8-4.7h5v11.1h4.1V15.5
		c2.1,0,3.9-0.4,5.5-1.4v12.5H28v-17h0L24.6,8.2z M40.9,8.5c-1.6,0-3.4,0.8-4.8,2.3l-0.2-1.9h-3.8v18.1h4.1v-9.9
		c0-2.5,0.8-4.5,3.7-4.5c2.9,0,3.8,2,3.8,4.5v9.9h4.2V16.7C47.9,12.3,45.4,8.5,40.9,8.5z M69,8.8c0,0,0,15.6,0,18.9
		c0,3.7-2.4,8.6-9.3,8.6c-6.2,0-8.5-4.9-8.7-6.1l3.7-1.1c0.1,0.9,1.4,3.3,4.7,3.3c3.1,0,5.3-1.7,5.3-4.6v-2.5
		c-1.4,1.2-3.1,1.9-5.1,1.9c-5.2,0-8.7-3.7-8.7-9.4s3.6-9.4,8.7-9.4c2.3,0,4.2,0.9,5.6,2.4l0.3-2.1H69z M64.9,17.9
		c0-3.2-2-5.3-4.9-5.3c-2.9,0-4.9,2.1-4.9,5.3c0,3.2,2,5.3,4.9,5.3C62.9,23.2,64.9,21.1,64.9,17.9z M89.6,19.4l-13.6,0
		c0.6,2.3,2.5,3.8,4.9,3.8c2,0,3.3-0.5,4.9-2.3l2.8,2.9c-2.3,2.6-4.7,3.5-7.9,3.5c-5.1,0-8.8-3.7-8.8-9.4s3.7-9.4,8.9-9.4
		c5.4,0,9.1,3.7,9.1,9.4C89.8,18.6,89.6,19.4,89.6,19.4z M76.1,15.9h9.4c-0.6-2.1-2.4-3.4-4.7-3.4C78.5,12.5,76.8,13.8,76.1,15.9z"
		/>
</g>
</svg>
