<svg xmlns="http://www.w3.org/2000/svg" width="135" height="29" fill="none">
  <path fill="#202020" d="M.003 1.328c0-.57.464-1.03 1.033-1.03H13.81c5.371 0 8.635 2.616 8.635 7.014 0 2.932-1.831 5.271-4.697 5.906 3.7.713 5.492 2.971 5.492 6.658 0 5.033-3.581 8.164-9.312 8.164H1.034A1.032 1.032 0 0 1 0 27.01V1.329h.003Zm12.334 9.71c2.548 0 3.86-1.029 3.86-2.931 0-1.903-1.312-2.854-3.86-2.854H6.13v5.786h6.208Zm.2 11.969c2.904 0 4.457-1.267 4.457-3.726 0-2.46-1.553-3.766-4.457-3.766H6.129v7.49h6.408v.002ZM25.065 20.352V9.732c0-.57.464-1.03 1.034-1.03h3.86c.572 0 1.033.463 1.033 1.03v8.6c0 3.489 1.273 5.232 3.7 5.232 2.548 0 3.86-1.743 3.86-5.232v-8.6c0-.57.464-1.03 1.033-1.03h3.82c.573 0 1.034.463 1.034 1.03v17.279c0 .57-.464 1.03-1.033 1.03h-3.82a1.032 1.032 0 0 1-1.035-1.03V25.9c-1.471 1.863-3.62 2.694-6.207 2.694-4.537 0-7.282-3.13-7.282-8.242h.003ZM47.81 8.7h3.86c.572 0 1.033.462 1.033 1.03v1.228c1.472-1.942 3.382-2.815 6.048-2.815s4.894 1.15 6.127 3.33c1.632-2.258 3.938-3.33 6.963-3.33 4.377 0 7.32 3.13 7.32 8.125v10.74c0 .57-.464 1.03-1.033 1.03h-3.78a1.032 1.032 0 0 1-1.035-1.03v-8.64c0-3.407-1.034-5.192-3.502-5.192-2.47 0-3.86 1.981-3.86 5.193v8.639c0 .57-.464 1.03-1.034 1.03h-3.82a1.032 1.032 0 0 1-1.034-1.03v-8.64c0-3.407-1.034-5.192-3.503-5.192-2.469 0-3.86 1.981-3.86 5.232v8.6c0 .57-.464 1.03-1.033 1.03h-3.86a1.032 1.032 0 0 1-1.034-1.03V9.73c0-.57.465-1.03 1.034-1.03h.003ZM87.27 25.701v1.31c0 .57-.464 1.03-1.034 1.03h-3.741a1.032 1.032 0 0 1-1.034-1.03V1.328c0-.57.464-1.03 1.034-1.03h3.86c.571 0 1.033.463 1.033 1.03v9.948c1.354-1.863 3.82-3.13 6.725-3.13 5.492 0 9.551 4.28 9.551 10.186s-4.06 10.265-10.068 10.265c-2.705 0-5.093-1.11-6.326-2.893V25.7Zm10.585-7.372c0-3.25-2.029-5.31-5.332-5.31s-5.332 2.062-5.332 5.31c0 3.249 2.028 5.43 5.332 5.43 3.303 0 5.332-2.061 5.332-5.43ZM106.588.298h3.86c.572 0 1.034.463 1.034 1.03v25.68c0 .57-.465 1.03-1.034 1.03h-3.86a1.031 1.031 0 0 1-1.033-1.03V1.328c0-.57.464-1.03 1.033-1.03ZM113.383 18.369c0-5.945 4.458-10.226 10.784-10.226 6.326 0 10.345 4.16 10.345 10.304 0 .57-.464 1.03-1.033 1.03h-14.405c.121.752.317 1.387.637 1.902.916 1.626 2.588 2.378 4.854 2.378 1.932 0 3.532-.742 4.755-2.205.333-.4.916-.486 1.351-.204l2.304 1.484c.48.308.624.951.309 1.427-1.755 2.629-5.216 4.335-8.837 4.335-6.564 0-11.062-3.922-11.062-10.225h-.002Zm15.32-1.822c0-2.14-1.871-3.805-4.497-3.805-2.188 0-3.781.792-4.576 2.496-.199.397-.317.831-.438 1.307h9.511v.002Z"/>
</svg>