<svg width="110" height="21" viewBox="0 0 110 21" fill="none" xmlns="http://www.w3.org/2000/svg">
<path d="M18.4703 4.53647H7.94521C6.7679 4.53647 5.88524 5.1392 5.88524 6.34338C5.88524 7.54756 6.47324 8.15029 7.94521 8.15029H17.8823V12.3107H5.88524V20.4296H0V1.04779C0 0.46932 0.480615 0.00195312 1.07254 0.00195312H18.469V4.53519L18.4703 4.53647Z" fill="white"/>
<path d="M39.5679 4.53579H29.0429C27.8656 4.53579 26.9829 5.13852 26.9829 6.34271C26.9829 7.54689 27.5709 8.14961 29.0429 8.14961H38.9799V12.31H26.9829V15.8957H39.5679V20.4289H21.0977V0H39.5679V4.53324V4.53579Z" fill="white"/>
<path d="M61.3189 4.53677H50.1653C48.9879 4.53677 48.1053 5.1395 48.1053 6.34368C48.1053 7.54786 48.6933 8.15059 50.1653 8.15059H60.7309V12.311H48.1066V15.8967H61.3202V20.4299H42.2227V0.000976562H61.3202V4.53421L61.3189 4.53677Z" fill="white"/>
<path d="M73.2052 15.9165H82.3278V20.4319H63.9648V0.00292969H70.0871V12.364C70.0871 14.8145 70.4852 15.9165 73.2052 15.9165Z" fill="white"/>
<path d="M84.8008 0.00420401H98.5932C103.36 0.00420401 110.001 3.30389 110.001 10.0463C110.001 17.3914 103.36 20.4319 98.5932 20.4319H84.8008V0.00292969V0.00420401ZM93.0393 15.8999H98.4165C100.77 15.8999 103.969 13.2604 103.969 10.0476C103.969 7.29315 101.064 4.53872 98.4165 4.53872H93.0393C91.7743 4.53872 90.686 5.11208 90.686 7.12075V13.0306C90.686 14.6089 91.1863 15.8999 93.0393 15.8999Z" fill="white"/>
</svg>
